<svg width="24" height="22" viewBox="0 0 24 22" fill="none" xmlns="http://www.w3.org/2000/svg">
<path d="M21.7135 12.8181L23.5676 4.66008C23.7015 4.07106 23.2538 3.51016 22.6497 3.51016H7.24433L6.88483 1.75265C6.79525 1.31459 6.40978 1 5.96262 1H1.94131C1.42143 1 1 1.42143 1 1.94131V2.56885C1 3.08872 1.42143 3.51016 1.94131 3.51016H4.6822L7.43741 16.9801C6.77826 17.3592 6.33408 18.0699 6.33408 18.8849C6.33408 20.0979 7.31744 21.0812 8.53047 21.0812C9.7435 21.0812 10.7269 20.0979 10.7269 18.8849C10.7269 18.2701 10.474 17.7147 10.067 17.316H18.2896C17.8826 17.7147 17.6298 18.2701 17.6298 18.8849C17.6298 20.0979 18.6131 21.0812 19.8262 21.0812C21.0392 21.0812 22.0226 20.0979 22.0226 18.8849C22.0226 18.0153 21.5171 17.2638 20.784 16.9079L21.0004 15.9558C21.1342 15.3668 20.6865 14.8059 20.0825 14.8059H9.55481L9.29811 13.5508H20.7956C21.2351 13.5508 21.6161 13.2467 21.7135 12.8181Z" stroke="white" stroke-width="0.627539"/>
</svg>
